<svg width="600" height="227" viewBox="0 0 600 227" fill="none" xmlns="http://www.w3.org/2000/svg">
<g filter="url(#filter0_f_19_590)">
<path d="M467 174.174C467 199.619 406.728 197.098 311.929 197.098C217.129 197.098 133 199.619 133 174.174C133 148.729 208.435 104.167 303.235 104.167C398.035 104.167 467 148.729 467 174.174Z" fill="url(#paint0_linear_19_590)"/>
</g>
<g filter="url(#filter1_f_19_590)">
<path d="M359.167 147.338C359.167 156.002 337.813 155.143 304.226 155.143C270.639 155.143 240.833 156.002 240.833 147.338C240.833 138.673 267.559 123.5 301.146 123.5C334.733 123.5 359.167 138.673 359.167 147.338Z" fill="white"/>
</g>
<g filter="url(#filter2_f_19_590)">
<ellipse cx="298.629" cy="430.302" rx="388.629" ry="296.386" fill="black"/>
<path d="M298.629 134.125C405.904 134.125 503.015 167.286 573.304 220.891C643.592 274.496 687.049 348.537 687.049 430.302C687.049 512.068 643.592 586.108 573.304 639.713C503.015 693.318 405.904 726.479 298.629 726.479C191.354 726.479 94.2416 693.318 23.9531 639.713C-46.3351 586.108 -89.7919 512.068 -89.792 430.302C-89.792 348.537 -46.3352 274.496 23.9531 220.891C94.2416 167.286 191.354 134.125 298.629 134.125Z" stroke="url(#paint1_linear_19_590)" stroke-width="0.416667"/>
</g>
<g filter="url(#filter3_f_19_590)">
<ellipse cx="300" cy="491.144" rx="462.5" ry="352.723" fill="#F8F8F8"/>
<path d="M300 138.628C427.674 138.628 543.254 178.096 626.91 241.896C710.567 305.696 762.292 393.821 762.292 491.144C762.292 588.467 710.566 676.591 626.91 740.391C543.254 804.191 427.674 843.659 300 843.659C172.326 843.659 56.7464 804.191 -26.9102 740.391C-110.566 676.591 -162.292 588.467 -162.292 491.144C-162.292 393.821 -110.567 305.696 -26.9102 241.896C56.7464 178.096 172.326 138.628 300 138.628Z" stroke="url(#paint2_linear_19_590)" stroke-width="0.416667"/>
</g>
<g style="mix-blend-mode:plus-lighter" filter="url(#filter4_f_19_590)">
<path d="M298.93 134.024C421.578 134.024 532.608 171.937 612.971 233.226C693.333 294.514 743.02 379.168 743.02 472.658C743.02 566.148 693.333 650.803 612.971 712.091C532.608 773.379 421.578 811.293 298.93 811.293C176.281 811.293 65.2515 773.379 -15.1115 712.091C-95.4743 650.803 -145.162 566.148 -145.162 472.658C-145.162 379.168 -95.4742 294.514 -15.1115 233.226C65.2515 171.937 176.281 134.024 298.93 134.024Z" stroke="url(#paint3_linear_19_590)" stroke-width="0.416667"/>
</g>
<g style="mix-blend-mode:plus-lighter" filter="url(#filter5_f_19_590)">
<path d="M298.93 134.024C421.578 134.024 532.608 171.937 612.971 233.226C693.333 294.514 743.02 379.168 743.02 472.658C743.02 566.148 693.333 650.803 612.971 712.091C532.608 773.379 421.578 811.293 298.93 811.293C176.281 811.293 65.2515 773.379 -15.1115 712.091C-95.4743 650.803 -145.162 566.148 -145.162 472.658C-145.162 379.168 -95.4742 294.514 -15.1115 233.226C65.2515 171.937 176.281 134.024 298.93 134.024Z" stroke="url(#paint4_linear_19_590)" stroke-width="0.416667"/>
</g>
<g style="mix-blend-mode:plus-lighter" filter="url(#filter6_f_19_590)">
<path d="M298.93 134.024C421.578 134.024 532.608 171.937 612.971 233.226C693.333 294.514 743.02 379.168 743.02 472.658C743.02 566.148 693.333 650.803 612.971 712.091C532.608 773.379 421.578 811.293 298.93 811.293C176.281 811.293 65.2515 773.379 -15.1115 712.091C-95.4743 650.803 -145.162 566.148 -145.162 472.658C-145.162 379.168 -95.4742 294.514 -15.1115 233.226C65.2515 171.937 176.281 134.024 298.93 134.024Z" stroke="url(#paint5_linear_19_590)" stroke-width="0.416667"/>
</g>
<g style="mix-blend-mode:plus-lighter" filter="url(#filter7_f_19_590)">
<path d="M298.93 134.024C421.578 134.024 532.608 171.937 612.971 233.226C693.333 294.514 743.02 379.168 743.02 472.658C743.02 566.148 693.333 650.803 612.971 712.091C532.608 773.379 421.578 811.293 298.93 811.293C176.281 811.293 65.2515 773.379 -15.1115 712.091C-95.4743 650.803 -145.162 566.148 -145.162 472.658C-145.162 379.168 -95.4742 294.514 -15.1115 233.226C65.2515 171.937 176.281 134.024 298.93 134.024Z" stroke="url(#paint6_linear_19_590)" stroke-width="0.416667"/>
</g>
<g style="mix-blend-mode:plus-lighter" filter="url(#filter8_f_19_590)">
<path d="M298.93 134.024C421.578 134.024 532.608 171.937 612.971 233.226C693.333 294.514 743.02 379.168 743.02 472.658C743.02 566.148 693.333 650.803 612.971 712.091C532.608 773.379 421.578 811.293 298.93 811.293C176.281 811.293 65.2515 773.379 -15.1115 712.091C-95.4743 650.803 -145.162 566.148 -145.162 472.658C-145.162 379.168 -95.4742 294.514 -15.1115 233.226C65.2515 171.937 176.281 134.024 298.93 134.024Z" stroke="url(#paint7_linear_19_590)" stroke-width="0.416667"/>
</g>
<defs>
<filter id="filter0_f_19_590" x="28.8333" y="-7.62939e-06" width="542.333" height="301.333" filterUnits="userSpaceOnUse" color-interpolation-filters="sRGB">
<feFlood flood-opacity="0" result="BackgroundImageFix"/>
<feBlend mode="normal" in="SourceGraphic" in2="BackgroundImageFix" result="shape"/>
<feGaussianBlur stdDeviation="52.0833" result="effect1_foregroundBlur_19_590"/>
</filter>
<filter id="filter1_f_19_590" x="199.167" y="81.8332" width="201.667" height="115" filterUnits="userSpaceOnUse" color-interpolation-filters="sRGB">
<feFlood flood-opacity="0" result="BackgroundImageFix"/>
<feBlend mode="normal" in="SourceGraphic" in2="BackgroundImageFix" result="shape"/>
<feGaussianBlur stdDeviation="20.8333" result="effect1_foregroundBlur_19_590"/>
</filter>
<filter id="filter2_f_19_590" x="-95" y="128.917" width="787.257" height="602.771" filterUnits="userSpaceOnUse" color-interpolation-filters="sRGB">
<feFlood flood-opacity="0" result="BackgroundImageFix"/>
<feBlend mode="normal" in="SourceGraphic" in2="BackgroundImageFix" result="shape"/>
<feGaussianBlur stdDeviation="2.5" result="effect1_foregroundBlur_19_590"/>
</filter>
<filter id="filter3_f_19_590" x="-167.5" y="133.42" width="935" height="715.447" filterUnits="userSpaceOnUse" color-interpolation-filters="sRGB">
<feFlood flood-opacity="0" result="BackgroundImageFix"/>
<feBlend mode="normal" in="SourceGraphic" in2="BackgroundImageFix" result="shape"/>
<feGaussianBlur stdDeviation="2.5" result="effect1_foregroundBlur_19_590"/>
</filter>
<filter id="filter4_f_19_590" x="-150.37" y="128.816" width="898.599" height="687.686" filterUnits="userSpaceOnUse" color-interpolation-filters="sRGB">
<feFlood flood-opacity="0" result="BackgroundImageFix"/>
<feBlend mode="normal" in="SourceGraphic" in2="BackgroundImageFix" result="shape"/>
<feGaussianBlur stdDeviation="2.5" result="effect1_foregroundBlur_19_590"/>
</filter>
<filter id="filter5_f_19_590" x="-150.37" y="128.816" width="898.599" height="687.686" filterUnits="userSpaceOnUse" color-interpolation-filters="sRGB">
<feFlood flood-opacity="0" result="BackgroundImageFix"/>
<feBlend mode="normal" in="SourceGraphic" in2="BackgroundImageFix" result="shape"/>
<feGaussianBlur stdDeviation="2.5" result="effect1_foregroundBlur_19_590"/>
</filter>
<filter id="filter6_f_19_590" x="-148.704" y="130.482" width="895.266" height="684.353" filterUnits="userSpaceOnUse" color-interpolation-filters="sRGB">
<feFlood flood-opacity="0" result="BackgroundImageFix"/>
<feBlend mode="normal" in="SourceGraphic" in2="BackgroundImageFix" result="shape"/>
<feGaussianBlur stdDeviation="1.66667" result="effect1_foregroundBlur_19_590"/>
</filter>
<filter id="filter7_f_19_590" x="-147.037" y="132.149" width="891.933" height="681.019" filterUnits="userSpaceOnUse" color-interpolation-filters="sRGB">
<feFlood flood-opacity="0" result="BackgroundImageFix"/>
<feBlend mode="normal" in="SourceGraphic" in2="BackgroundImageFix" result="shape"/>
<feGaussianBlur stdDeviation="0.833333" result="effect1_foregroundBlur_19_590"/>
</filter>
<filter id="filter8_f_19_590" x="-147.037" y="132.149" width="891.933" height="681.019" filterUnits="userSpaceOnUse" color-interpolation-filters="sRGB">
<feFlood flood-opacity="0" result="BackgroundImageFix"/>
<feBlend mode="normal" in="SourceGraphic" in2="BackgroundImageFix" result="shape"/>
<feGaussianBlur stdDeviation="0.833333" result="effect1_foregroundBlur_19_590"/>
</filter>
<linearGradient id="paint0_linear_19_590" x1="300" y1="104.167" x2="300" y2="197.167" gradientUnits="userSpaceOnUse">
<stop stop-color="#676767"/>
<stop offset="1" stop-color="#444444"/>
</linearGradient>
<linearGradient id="paint1_linear_19_590" x1="298.629" y1="133.917" x2="298.629" y2="208.906" gradientUnits="userSpaceOnUse">
<stop stop-color="white"/>
<stop offset="1" stop-opacity="0"/>
</linearGradient>
<linearGradient id="paint2_linear_19_590" x1="300" y1="138.42" x2="300" y2="227.664" gradientUnits="userSpaceOnUse">
<stop/>
<stop offset="1" stop-opacity="0"/>
</linearGradient>
<linearGradient id="paint3_linear_19_590" x1="298.929" y1="133.816" x2="298.75" y2="224.879" gradientUnits="userSpaceOnUse">
<stop/>
<stop offset="1" stop-opacity="0"/>
</linearGradient>
<linearGradient id="paint4_linear_19_590" x1="298.929" y1="133.816" x2="298.75" y2="174.254" gradientUnits="userSpaceOnUse">
<stop/>
<stop offset="1" stop-opacity="0"/>
</linearGradient>
<linearGradient id="paint5_linear_19_590" x1="298.929" y1="133.816" x2="298.75" y2="167.379" gradientUnits="userSpaceOnUse">
<stop/>
<stop offset="1" stop-opacity="0"/>
</linearGradient>
<linearGradient id="paint6_linear_19_590" x1="298.929" y1="133.816" x2="298.75" y2="159.462" gradientUnits="userSpaceOnUse">
<stop stop-color="white"/>
<stop offset="1" stop-opacity="0"/>
</linearGradient>
<linearGradient id="paint7_linear_19_590" x1="298.929" y1="133.816" x2="298.75" y2="154.462" gradientUnits="userSpaceOnUse">
<stop stop-color="white"/>
<stop offset="1" stop-opacity="0"/>
</linearGradient>
</defs>
</svg>
